# xmcd CD database file
#
# Track frame offsets:
#	150
#	19202
#	38330
#	58155
#	79362
#	98585
#	116992
#	133907
#	148385
#	175050
#	192302
#	209357
#	229065
#	246657
#
# Disc length: 3551 seconds
#
# Revision: 2
# Processed by: cddbd v1.5.2PL0 Copyright (c) Steve Scherf et al.
# Submitted via: CDex 1.51
#
DISCID=d30ddd0e
DTITLE=변진섭 - 골든앨범 (OASIS REC)
DYEAR=1995
DGENRE=Pop
TTITLE0=홀로 된다는 것
TTITLE1=너무 늦었잖아요
TTITLE2=로라
TTITLE3=너와 함께 있는 이유
TTITLE4=그대 내게 다시
TTITLE5=너에게로 또다시
TTITLE6=지금 이대로
TTITLE7=희망사항
TTITLE8=우리의 사랑이 필요한거죠
TTITLE9=네게 줄 수 있는 건 오직사랑뿐
TTITLE10=숙녀에게
TTITLE11=새들처럼
TTITLE12=미워서 미워질때
TTITLE13=니가 오는 날
EXTD=YEAR: 1995
EXTT0=
EXTT1=
EXTT2=
EXTT3=
EXTT4=
EXTT5=
EXTT6=
EXTT7=
EXTT8=
EXTT9=
EXTT10=
EXTT11=
EXTT12=
EXTT13=
PLAYORDER=
